<svg id="Capa_1" enable-background="new 0 0 512 512" height="512" viewBox="0 0 512 512" width="512"
    xmlns="http://www.w3.org/2000/svg">
    <g>
        <path
            d="m256 0c-141.488 0-256.001 114.496-256 256 0 141.491 114.497 256 256 256 141.488 0 256.001-114.496 256-256 0-141.491-114.497-256-256-256zm159.806 415.807c-88.117 88.117-231.495 88.117-319.612 0v-.001c-88.117-88.117-88.117-231.494 0-319.612 88.326-88.325 231.28-88.331 319.613.001 88.116 88.117 88.116 231.493-.001 319.612z" />
        <path
            d="m406.051 144.903c-23.542-23.543-61.755-23.433-85.157.306l-93.4 94.749-36.692-36.692c-23.449-23.449-61.401-23.453-84.853 0-23.394 23.393-23.394 61.458 0 84.853 60.789 60.788 43.397 43.436 78.438 78.456 24.108 24.096 63.326 24.083 87.42-.012 33.453-33.453 134.551-137.114 134.551-137.114 23.056-23.393 22.918-61.32-.307-84.546zm-21.059 63.487c-112.947 114.598-134.398 136.96-134.398 136.96-12.405 12.405-32.592 12.407-45 .006 0 0-73.179-73.197-78.432-78.45-11.697-11.697-11.697-30.73 0-42.427 11.726-11.726 30.7-11.725 42.426 0l47.376 47.375c5.889 5.889 15.446 5.851 21.289-.076l104.005-105.508c11.688-11.856 30.796-11.937 42.579-.153 11.613 11.612 11.683 30.576.155 42.273z" />
    </g>
</svg>