<svg id="Capa_1" enable-background="new 0 0 512 512" height="512" viewBox="0 0 512 512" width="512" xmlns="http://www.w3.org/2000/svg"><g><path d="m256 0c-141.49 0-256 114.5-256 256 0 141.49 114.5 256 256 256 141.49 0 256-114.5 256-256 0-141.49-114.5-256-256-256zm-60.914 363.99s-88.422-88.458-94.778-94.802c-14.139-14.139-14.139-37.147 0-51.274 14.175-14.175 37.099-14.175 51.274 0l57.244 57.244c7.118 7.118 18.67 7.069 25.728-.085l125.69-127.502c14.127-14.332 37.208-14.429 51.455-.181 14.03 14.03 14.115 36.942.181 51.081-136.493 138.486-162.414 165.507-162.414 165.507-14.985 14.984-39.383 14.997-54.38.012z"/></g></svg>