<svg
    xmlns="http://www.w3.org/2000/svg"
    viewBox="0 0 512 512"
    id="vector">
    <path
        id="path"
        d="M 492.274 156.863 C 478.705 125.266 460.459 98.009 437.545 75.096 C 414.626 52.181 387.371 33.938 355.773 20.363 C 324.179 6.788 291.032 0.006 256.321 0.006 C 223.617 0.006 191.968 6.174 161.371 18.526 C 130.781 30.874 103.581 48.283 79.773 70.758 L 36.381 27.699 C 29.705 20.801 22.032 19.246 13.352 23.025 C 4.45 26.812 0 33.378 0 42.722 L 0 192.238 C 0 198.022 2.115 203.029 6.343 207.256 C 10.573 211.484 15.58 213.599 21.364 213.599 L 170.881 213.599 C 180.228 213.599 186.79 209.148 190.573 200.248 C 194.353 191.571 192.797 183.897 185.898 177.219 L 140.175 131.164 C 155.754 116.479 173.552 105.188 193.576 97.288 C 213.601 89.39 234.514 85.437 256.319 85.437 C 279.456 85.437 301.542 89.947 322.568 98.954 C 343.598 107.967 361.779 120.148 377.134 135.501 C 392.487 150.851 404.668 169.038 413.681 190.067 C 422.685 211.092 427.194 233.172 427.194 256.316 C 427.194 279.458 422.686 301.538 413.681 322.562 C 404.668 343.588 392.487 361.774 377.134 377.128 C 361.779 392.481 343.591 404.666 322.568 413.675 C 301.542 422.684 279.456 427.189 256.319 427.189 C 229.841 427.189 204.811 421.404 181.225 409.838 C 157.642 398.273 137.729 381.92 121.487 360.774 C 119.931 358.551 117.371 357.214 113.81 356.766 C 110.472 356.766 107.689 357.765 105.465 359.765 L 59.743 405.824 C 57.965 407.613 57.019 409.89 56.907 412.666 C 56.797 415.454 57.523 417.954 59.079 420.179 C 83.333 449.549 112.7 472.299 147.186 488.425 C 181.672 504.554 218.054 512.623 256.321 512.623 C 291.032 512.623 324.179 505.834 355.773 492.265 C 387.371 478.697 414.618 460.446 437.54 437.533 C 460.457 414.611 478.7 387.361 492.273 355.766 C 505.845 324.172 512.625 291.016 512.625 256.312 C 512.627 221.597 505.842 188.458 492.274 156.863 Z"
        fill="none"
        stroke="#5f30e2"
        stroke-width="24"/>
</svg>
